<?xml version="1.0" standalone="no"?>
<!DOCTYPE svg PUBLIC "-//W3C//DTD SVG 20010904//EN"
 "http://www.w3.org/TR/2001/REC-SVG-20010904/DTD/svg10.dtd">
<svg version="1.0" xmlns="http://www.w3.org/2000/svg"
 width="344.000000pt" height="350.000000pt" viewBox="0 0 344.000000 350.000000"
 preserveAspectRatio="xMidYMid meet">

<g transform="translate(0.000000,350.000000) scale(0.100000,-0.100000)"
fill="#000000" stroke="none">
<path d="M0 1750 l0 -1750 1720 0 1720 0 0 1750 0 1750 -1720 0 -1720 0 0
-1750z m2275 1055 c130 -25 227 -79 280 -156 51 -72 75 -182 75 -338 0 -155
-19 -247 -63 -305 l-27 -34 47 -23 c91 -44 153 -116 189 -219 17 -50 19 -86
19 -391 0 -262 -3 -341 -13 -360 -8 -13 -95 -91 -195 -174 l-181 -150 -252 -3
-253 -3 -33 30 -33 29 -5 250 c-5 261 -9 282 -51 282 -17 0 -19 -9 -19 -115 0
-64 -5 -125 -11 -139 -10 -22 -295 -268 -369 -318 -22 -16 -53 -18 -262 -18
-163 0 -245 4 -263 12 -57 26 -55 -8 -55 935 1 667 4 873 13 890 13 23 311
282 362 314 28 18 57 19 527 19 395 0 512 -3 573 -15z"/>
<path d="M1180 2770 c-20 -20 -20 -33 -20 -891 0 -548 4 -877 10 -889 18 -33
66 -40 277 -40 155 0 212 3 238 14 19 8 36 16 37 18 1 2 5 129 8 283 l5 280
203 0 204 0 24 -28 c24 -28 24 -29 24 -267 0 -238 0 -239 24 -267 l24 -28 242
0 242 0 24 28 24 28 0 317 c0 351 -6 398 -60 483 -43 66 -154 139 -211 139
-28 0 -23 11 15 42 19 15 44 49 57 75 21 43 24 65 27 208 5 181 -5 241 -51
328 -34 65 -81 107 -159 141 -95 42 -156 46 -686 46 -489 0 -503 -1 -522 -20z
m964 -227 c57 -21 125 -91 145 -149 18 -52 26 -303 13 -388 -14 -85 -45 -151
-83 -173 -16 -10 -29 -20 -29 -24 0 -4 26 -10 58 -14 106 -13 175 -54 215
-130 20 -37 22 -57 25 -257 2 -150 0 -218 -7 -218 -7 0 -11 57 -11 175 0 95
-5 197 -11 224 -18 87 -76 149 -158 171 -21 5 -210 10 -436 10 l-400 1 -5
-291 c-3 -181 -9 -291 -15 -293 -7 -1 -11 233 -13 686 l-2 687 332 0 c292 0
339 -2 382 -17z"/>
<path d="M1467 2534 c-4 -4 -7 -171 -7 -371 l0 -364 328 3 c326 3 327 3 377
28 42 21 55 34 80 85 l30 60 0 195 0 195 -31 54 c-23 42 -43 62 -85 85 l-54
31 -315 3 c-173 2 -318 0 -323 -4z m525 -215 c30 -16 48 -71 48 -149 0 -79
-18 -133 -49 -150 -13 -6 -66 -10 -138 -8 l-118 3 -3 145 c-1 79 0 150 2 157
7 16 227 18 258 2z"/>
</g>
</svg>
