<?xml version="1.0" encoding="UTF-8"?>
<!DOCTYPE svg PUBLIC "-//W3C//DTD SVG 1.1//EN" "http://www.w3.org/Graphics/SVG/1.1/DTD/svg11.dtd">
<svg xmlns="http://www.w3.org/2000/svg" version="1.1" width="344px" height="350px" style="shape-rendering:geometricPrecision; text-rendering:geometricPrecision; image-rendering:optimizeQuality; fill-rule:evenodd; clip-rule:evenodd" xmlns:xlink="http://www.w3.org/1999/xlink">
<g><path style="opacity:1" fill="#none" d="M -0.5,-0.5 C 114.167,-0.5 228.833,-0.5 343.5,-0.5C 343.5,116.167 343.5,232.833 343.5,349.5C 228.833,349.5 114.167,349.5 -0.5,349.5C -0.5,232.833 -0.5,116.167 -0.5,-0.5 Z"/></g>
<g><path style="opacity:1" fill="#bd9ae6" d="M 118.5,68.5 C 152.998,67.3357 187.664,67.1691 222.5,68C 236.21,69.2691 247.377,75.1024 256,85.5C 257.827,89.4674 259.327,93.4674 260.5,97.5C 261.418,109.803 261.752,122.136 261.5,134.5C 260.895,137.127 260.395,139.793 260,142.5C 258.151,145.538 256.318,148.538 254.5,151.5C 257.745,154.469 261.412,156.969 265.5,159C 270.783,163.084 274.45,168.251 276.5,174.5C 276.41,177.152 277.076,179.485 278.5,181.5C 278.5,182.833 278.5,184.167 278.5,185.5C 278.801,207.533 278.468,229.533 277.5,251.5C 276.833,252.833 275.833,253.833 274.5,254.5C 274.158,253.662 273.492,253.328 272.5,253.5C 273.458,252.038 274.624,250.705 276,249.5C 276.667,226.5 276.667,203.5 276,180.5C 272.221,165.556 262.721,156.556 247.5,153.5C 253.718,149.064 257.385,143.064 258.5,135.5C 259.66,123.674 259.826,111.674 259,99.5C 258.434,97.2774 257.6,95.2774 256.5,93.5C 252.019,82.7308 244.019,75.8975 232.5,73C 226.905,71.6531 221.238,70.8197 215.5,70.5C 215.5,70.1667 215.5,69.8333 215.5,69.5C 187.185,68.495 154.852,68.1617 118.5,68.5 Z"/></g>
<g><path style="opacity:1" fill="#d7c3ef" d="M 215.5,69.5 C 215.5,69.8333 215.5,70.1667 215.5,70.5C 183.456,70.1813 151.456,70.5147 119.5,71.5C 119.611,70.8826 119.944,70.3826 120.5,70C 152.165,69.5 183.832,69.3334 215.5,69.5 Z"/></g>
<g><path style="opacity:1" fill="#fefdfe" d="M 215.5,70.5 C 221.238,70.8197 226.905,71.6531 232.5,73C 244.019,75.8975 252.019,82.7308 256.5,93.5C 258.365,107.395 259.031,121.395 258.5,135.5C 257.385,143.064 253.718,149.064 247.5,153.5C 262.721,156.556 272.221,165.556 276,180.5C 276.667,203.5 276.667,226.5 276,249.5C 274.624,250.705 273.458,252.038 272.5,253.5C 256.241,254.651 239.907,254.817 223.5,254C 221.174,252.195 219.508,250.028 218.5,247.5C 218.667,231.497 218.5,215.497 218,199.5C 217.722,198.584 217.222,197.918 216.5,197.5C 214.641,196.406 212.641,195.573 210.5,195C 197.924,194.179 185.424,194.345 173,195.5C 172.833,213.842 172.333,232.176 171.5,250.5C 170.315,251.853 168.981,253.02 167.5,254C 151.833,254.667 136.167,254.667 120.5,254C 118.249,253.252 116.916,251.752 116.5,249.5C 116.175,190.458 116.508,131.458 117.5,72.5C 117.842,71.6618 118.508,71.3284 119.5,71.5C 151.456,70.5147 183.456,70.1813 215.5,70.5 Z"/></g>
<g><path style="opacity:1" fill="#b289e2" d="M 118.5,68.5 C 154.852,68.1617 187.185,68.495 215.5,69.5C 183.832,69.3334 152.165,69.5 120.5,70C 119.944,70.3826 119.611,70.8826 119.5,71.5C 118.508,71.3284 117.842,71.6618 117.5,72.5C 116.883,72.6107 116.383,72.944 116,73.5C 115.168,132.335 115.335,191.001 116.5,249.5C 116.916,251.752 118.249,253.252 120.5,254C 136.167,254.667 151.833,254.667 167.5,254C 168.981,253.02 170.315,251.853 171.5,250.5C 172.333,232.176 172.833,213.842 173,195.5C 185.424,194.345 197.924,194.179 210.5,195C 212.641,195.573 214.641,196.406 216.5,197.5C 217.109,214.314 217.776,230.981 218.5,247.5C 219.508,250.028 221.174,252.195 223.5,254C 239.907,254.817 256.241,254.651 272.5,253.5C 273.492,253.328 274.158,253.662 274.5,254.5C 262.98,264.847 250.98,274.681 238.5,284C 222.167,284.667 205.833,284.667 189.5,284C 187.34,283.004 185.673,281.504 184.5,279.5C 183.695,262.877 183.195,246.21 183,229.5C 182.722,228.584 182.222,227.918 181.5,227.5C 179.858,225.919 177.858,225.253 175.5,225.5C 175.79,234.042 175.457,242.542 174.5,251C 162.085,263.079 148.752,274.079 134.5,284C 118.167,284.667 101.833,284.667 85.5,284C 84.2949,282.624 82.9616,281.458 81.5,280.5C 81.3713,278.784 81.038,277.117 80.5,275.5C 80.3333,218.832 80.5,162.166 81,105.5C 81.4396,103.134 81.9396,100.801 82.5,98.5C 94.1831,88.153 106.183,78.153 118.5,68.5 Z"/></g>
<g><path style="opacity:1" fill="#f6f1fb" d="M 117.5,72.5 C 116.508,131.458 116.175,190.458 116.5,249.5C 115.335,191.001 115.168,132.335 116,73.5C 116.383,72.944 116.883,72.6107 117.5,72.5 Z"/></g>
<g><path style="opacity:1" fill="#fefdfe" d="M 205.5,96.5 C 215.265,96.956 221.931,101.623 225.5,110.5C 226.421,123.137 226.754,135.803 226.5,148.5C 225.895,151.127 225.395,153.793 225,156.5C 223.401,161.594 220.234,165.261 215.5,167.5C 213.146,167.838 210.813,168.338 208.5,169C 198,169.167 187.5,169.333 177,169.5C 166.145,169.499 155.645,168.832 145.5,167.5C 146.498,144.006 146.831,120.339 146.5,96.5C 166.167,96.5 185.833,96.5 205.5,96.5 Z"/></g>
<g><path style="opacity:1" fill="#eee5f9" d="M 145.5,95.5 C 165.674,95.1695 185.674,95.5029 205.5,96.5C 185.833,96.5 166.167,96.5 146.5,96.5C 146.831,120.339 146.498,144.006 145.5,167.5C 145.5,143.5 145.5,119.5 145.5,95.5 Z"/></g>
<g><path style="opacity:1" fill="#bc98e5" d="M 206.5,93.5 C 217.317,94.6499 224.651,100.317 228.5,110.5C 228.784,112.415 228.451,114.081 227.5,115.5C 227.204,113.597 226.537,111.93 225.5,110.5C 221.931,101.623 215.265,96.956 205.5,96.5C 185.674,95.5029 165.674,95.1695 145.5,95.5C 165.833,94.8333 186.167,94.1667 206.5,93.5 Z"/></g>
<g><path style="opacity:1" fill="#e3d4f4" d="M 79.5,103.5 C 79.1676,161.002 79.501,218.336 80.5,275.5C 81.038,277.117 81.3713,278.784 81.5,280.5C 80.0337,279.653 79.2004,278.32 79,276.5C 78.1681,218.665 78.3348,160.999 79.5,103.5 Z"/></g>
<g><path style="opacity:1" fill="#bf9ce6" d="M 82.5,98.5 C 81.9396,100.801 81.4396,103.134 81,105.5C 80.5,162.166 80.3333,218.832 80.5,275.5C 79.501,218.336 79.1676,161.002 79.5,103.5C 79.7497,101.326 80.7497,99.6594 82.5,98.5 Z"/></g>
<g><path style="opacity:1" fill="#cdb3ec" d="M 260.5,97.5 C 261.268,98.2625 261.768,99.2625 262,100.5C 262.826,112.008 262.659,123.341 261.5,134.5C 261.752,122.136 261.418,109.803 260.5,97.5 Z"/></g>
<g><path style="opacity:1" fill="#ece2f7" d="M 256.5,93.5 C 257.6,95.2774 258.434,97.2774 259,99.5C 259.826,111.674 259.66,123.674 258.5,135.5C 259.031,121.395 258.365,107.395 256.5,93.5 Z"/></g>
<g><path style="opacity:1" fill="#b38ae2" d="M 199.5,118.5 C 200.511,120.372 201.345,122.372 202,124.5C 202.499,129.823 202.666,135.156 202.5,140.5C 202.278,143.901 200.612,146.401 197.5,148C 189.173,148.5 180.84,148.666 172.5,148.5C 172.5,137.833 172.5,127.167 172.5,116.5C 180.84,116.334 189.173,116.5 197.5,117C 198.416,117.278 199.082,117.778 199.5,118.5 Z"/></g>
<g><path style="opacity:1" fill="#ebe1f7" d="M 225.5,110.5 C 226.537,111.93 227.204,113.597 227.5,115.5C 227.828,126.679 227.495,137.679 226.5,148.5C 226.754,135.803 226.421,123.137 225.5,110.5 Z"/></g>
<g><path style="opacity:1" fill="#c7aaea" d="M 199.5,118.5 C 201.173,119.343 202.34,120.676 203,122.5C 203.819,128.681 203.653,134.681 202.5,140.5C 202.666,135.156 202.499,129.823 202,124.5C 201.345,122.372 200.511,120.372 199.5,118.5 Z"/></g>
<g><path style="opacity:1" fill="#c2a1e7" d="M 228.5,110.5 C 229.302,111.952 229.802,113.618 230,115.5C 230.827,128.534 230.493,141.534 229,154.5C 227.217,160.375 223.717,165.041 218.5,168.5C 220.631,169.169 222.631,169.835 224.5,170.5C 221.833,170.5 219.167,170.5 216.5,170.5C 216.737,169.209 216.404,168.209 215.5,167.5C 220.234,165.261 223.401,161.594 225,156.5C 225.395,153.793 225.895,151.127 226.5,148.5C 227.495,137.679 227.828,126.679 227.5,115.5C 228.451,114.081 228.784,112.415 228.5,110.5 Z"/></g>
<g><path style="opacity:1" fill="#bd99e5" d="M 143.5,93.5 C 164.5,93.5 185.5,93.5 206.5,93.5C 186.167,94.1667 165.833,94.8333 145.5,95.5C 145.5,119.5 145.5,143.5 145.5,167.5C 155.645,168.832 166.145,169.499 177,169.5C 187.5,169.333 198,169.167 208.5,169C 210.813,168.338 213.146,167.838 215.5,167.5C 216.404,168.209 216.737,169.209 216.5,170.5C 219.167,170.5 221.833,170.5 224.5,170.5C 233.849,170.667 240.849,174.667 245.5,182.5C 245.737,183.791 245.404,184.791 244.5,185.5C 241.069,178.903 235.736,174.736 228.5,173C 200.835,172.5 173.169,172.333 145.5,172.5C 144.668,191.662 144.168,210.996 144,230.5C 143.5,184.835 143.333,139.168 143.5,93.5 Z"/></g>
<g><path style="opacity:1" fill="#c8abe9" d="M 143.5,93.5 C 143.333,139.168 143.5,184.835 144,230.5C 144.168,210.996 144.668,191.662 145.5,172.5C 145.5,192.167 145.5,211.833 145.5,231.5C 144.5,231.5 143.5,231.5 142.5,231.5C 142.168,185.33 142.501,139.33 143.5,93.5 Z"/></g>
<g><path style="opacity:1" fill="#d5beef" d="M 276.5,174.5 C 277.924,176.515 278.59,178.848 278.5,181.5C 277.076,179.485 276.41,177.152 276.5,174.5 Z"/></g>
<g><path style="opacity:1" fill="#d1b9ee" d="M 278.5,185.5 C 279.663,206.663 279.829,227.996 279,249.5C 278.722,250.416 278.222,251.082 277.5,251.5C 278.468,229.533 278.801,207.533 278.5,185.5 Z"/></g>
<g><path style="opacity:1" fill="#c5a8e9" d="M 245.5,182.5 C 246.558,183.6 247.392,184.934 248,186.5C 248.828,201.339 248.661,216.006 247.5,230.5C 247.667,216.496 247.5,202.496 247,188.5C 246.221,185.903 245.721,185.903 245.5,188.5C 244.596,187.791 244.263,186.791 244.5,185.5C 245.404,184.791 245.737,183.791 245.5,182.5 Z"/></g>
<g><path style="opacity:1" fill="#b994e4" d="M 247.5,230.5 C 246.8,216.628 246.134,202.628 245.5,188.5C 245.721,185.903 246.221,185.903 247,188.5C 247.5,202.496 247.667,216.496 247.5,230.5 Z"/></g>
<g><path style="opacity:1" fill="#cbafeb" d="M 216.5,197.5 C 217.222,197.918 217.722,198.584 218,199.5C 218.5,215.497 218.667,231.497 218.5,247.5C 217.776,230.981 217.109,214.314 216.5,197.5 Z"/></g>
<g><path style="opacity:1" fill="#d7c2ef" d="M 181.5,227.5 C 182.222,227.918 182.722,228.584 183,229.5C 183.195,246.21 183.695,262.877 184.5,279.5C 183.883,279.389 183.383,279.056 183,278.5C 182.776,261.476 182.276,244.476 181.5,227.5 Z"/></g>
</svg>
